HIERARCHY
ROOT Hips
{
	OFFSET 0.000000 89.005402 0.000000
	CHANNELS 6 Xposition Yposition Zposition Xrotation Yrotation Zrotation
	JOINT Spine
	{
		OFFSET 0.116900 10.681000 0.373400
		CHANNELS 3 Xrotation Yrotation Zrotation
		JOINT Spine1
		{
			OFFSET 0.000000 13.840401 0.053500
			CHANNELS 3 Xrotation Yrotation Zrotation
			JOINT Spine2
			{
				OFFSET 0.000000 14.712700 -0.366200
				CHANNELS 3 Xrotation Yrotation Zrotation
				JOINT Neck
				{
					OFFSET 0.000000 35.415497 -3.314200
					CHANNELS 3 Xrotation Yrotation Zrotation
					JOINT Head
					{
						OFFSET 0.000000 16.899200 1.218300
						CHANNELS 3 Xrotation Yrotation Zrotation
						JOINT HeadTop_End
						{
							OFFSET 0.000000 22.206207 2.192500
							CHANNELS 3 Xrotation Yrotation Zrotation
							End Site
							{
								OFFSET 0.000000 22.314178 0.000000
							}
						}
					}
				}
				JOINT LeftShoulder
				{
					OFFSET 12.896400 26.716293 -4.548400
					CHANNELS 3 Xrotation Yrotation Zrotation
					JOINT LeftArm
					{
						OFFSET 19.027000 -4.857010 -1.718400
						CHANNELS 3 Xrotation Yrotation Zrotation
						JOINT LeftForeArm
						{
							OFFSET 24.179897 0.000000 0.000000
							CHANNELS 3 Xrotation Yrotation Zrotation
							JOINT LeftHand
							{
								OFFSET 27.156403 0.000000 0.000000
								CHANNELS 3 Xrotation Yrotation Zrotation
								JOINT LeftHandIndex1
								{
									OFFSET 16.441200 0.000000 0.000000
									CHANNELS 3 Xrotation Yrotation Zrotation
									JOINT LeftHandIndex2
									{
										OFFSET 4.821899 0.000000 0.000000
										CHANNELS 3 Xrotation Yrotation Zrotation
										JOINT LeftHandIndex3
										{
											OFFSET 6.386497 0.000000 0.000000
											CHANNELS 3 Xrotation Yrotation Zrotation
											JOINT LeftHandIndex4
											{
												OFFSET 5.188988 0.000000 0.000000
												CHANNELS 3 Xrotation Yrotation Zrotation
												End Site
												{
													OFFSET -0.178703 5.185913 0.000177
												}
											}
										}
									}
								}
								JOINT LeftHandThumb1
								{
									OFFSET 6.534897 -5.032593 5.900300
									CHANNELS 3 Xrotation Yrotation Zrotation
									JOINT LeftHandThumb2
									{
										OFFSET 3.818176 -2.204422 2.204423
										CHANNELS 3 Xrotation Yrotation Zrotation
										JOINT LeftHandThumb3
										{
											OFFSET 3.252098 -1.877594 1.877601
											CHANNELS 3 Xrotation Yrotation Zrotation
											JOINT LeftHandThumb4
											{
												OFFSET 5.251778 -3.032120 3.032117
												CHANNELS 3 Xrotation Yrotation Zrotation
												End Site
												{
													OFFSET 0.000023 6.780014 0.000000
												}
											}
										}
									}
								}
							}
						}
					}
				}
				JOINT RightShoulder
				{
					OFFSET -12.896300 26.716293 -4.548400
					CHANNELS 3 Xrotation Yrotation Zrotation
					JOINT RightArm
					{
						OFFSET -19.027000 -4.857010 -1.718400
						CHANNELS 3 Xrotation Yrotation Zrotation
						JOINT RightForeArm
						{
							OFFSET -24.179897 0.000000 0.000000
							CHANNELS 3 Xrotation Yrotation Zrotation
							JOINT RightHand
							{
								OFFSET -27.156403 0.000000 0.000000
								CHANNELS 3 Xrotation Yrotation Zrotation
								JOINT RightHandThumb1
								{
									OFFSET -6.591202 -4.852203 5.988100
									CHANNELS 3 Xrotation Yrotation Zrotation
									JOINT RightHandThumb2
									{
										OFFSET -3.818176 -2.204422 2.204423
										CHANNELS 3 Xrotation Yrotation Zrotation
										JOINT RightHandThumb3
										{
											OFFSET -3.252098 -1.877594 1.877601
											CHANNELS 3 Xrotation Yrotation Zrotation
											JOINT RightHandThumb4
											{
												OFFSET -5.251778 -3.032120 3.032117
												CHANNELS 3 Xrotation Yrotation Zrotation
												End Site
												{
													OFFSET -0.000023 6.780014 0.000000
												}
											}
										}
									}
								}
								JOINT RightHandIndex1
								{
									OFFSET -16.029404 0.000000 0.000000
									CHANNELS 3 Xrotation Yrotation Zrotation
									JOINT RightHandIndex2
									{
										OFFSET -5.213303 0.000000 0.000000
										CHANNELS 3 Xrotation Yrotation Zrotation
										JOINT RightHandIndex3
										{
											OFFSET -6.386528 0.000000 0.000000
											CHANNELS 3 Xrotation Yrotation Zrotation
											JOINT RightHandIndex4
											{
												OFFSET -5.189026 0.000000 0.000000
												CHANNELS 3 Xrotation Yrotation Zrotation
												End Site
												{
													OFFSET 0.236702 5.183624 0.001972
												}
											}
										}
									}
								}
							}
						}
					}
				}
			}
		}
	}
	JOINT LeftUpLeg
	{
		OFFSET 14.073000 -7.904099 -1.463000
		CHANNELS 3 Xrotation Yrotation Zrotation
		JOINT LeftLeg
		{
			OFFSET -0.109806 -34.073280 4.093200
			CHANNELS 3 Xrotation Yrotation Zrotation
			JOINT LeftFoot
			{
				OFFSET 0.109806 -29.899420 -6.319000
				CHANNELS 3 Xrotation Yrotation Zrotation
				JOINT LeftToeBase
				{
					OFFSET 1.551100 -14.988700 20.535801
					CHANNELS 3 Xrotation Yrotation Zrotation
					JOINT LeftToe_End
					{
						OFFSET 0.221200 0.570800 13.248301
						CHANNELS 3 Xrotation Yrotation Zrotation
						End Site
						{
							OFFSET 0.000000 13.262435 0.000000
						}
					}
				}
			}
		}
	}
	JOINT RightUpLeg
	{
		OFFSET -13.839300 -7.904099 -1.463000
		CHANNELS 3 Xrotation Yrotation Zrotation
		JOINT RightLeg
		{
			OFFSET 0.109694 -34.073219 4.093300
			CHANNELS 3 Xrotation Yrotation Zrotation
			JOINT RightFoot
			{
				OFFSET -0.109694 -29.899384 -6.319200
				CHANNELS 3 Xrotation Yrotation Zrotation
				JOINT RightToeBase
				{
					OFFSET -1.551100 -14.988700 20.535801
					CHANNELS 3 Xrotation Yrotation Zrotation
					JOINT RightToe_End
					{
						OFFSET -0.221200 0.570900 13.248299
						CHANNELS 3 Xrotation Yrotation Zrotation
						End Site
						{
							OFFSET 0.000000 13.262440 0.000000
						}
					}
				}
			}
		}
	}
}
MOTION
Frames: 8
Frame Time: 0.033333
-5.835642 101.384598 3.134338 12.305827 -31.981456 15.862535 12.985469 -2.460051 -1.400400 10.013244 -5.200562 -2.610754 -1.859971 -4.552535 -3.625618 1.844137 17.130960 -5.553182 12.091819 17.570074 -3.286091 0.000002 0.000000 0.000001 -5.080722 -4.566844 -8.247607 -40.732970 10.530322 2.748677 -2.585855 -53.986573 -5.477664 -3.484006 -7.221419 25.443370 -1.566622 -9.629505 -0.081061 0.133780 -0.197625 -4.602183 0.055726 -0.448192 -7.568226 0.000002 -0.000000 0.000002 13.189944 -18.395397 11.962671 -1.149399 11.255849 -8.400750 5.706536 8.483091 -0.820746 0.000000 -0.000000 -0.000000 -9.436399 2.260791 -5.591655 -44.474691 -23.310577 -5.684740 -81.119240 45.267690 82.756225 -24.411613 16.888790 -22.858674 55.149553 18.649567 -29.698311 -0.442533 -14.180578 7.313154 21.666981 -29.244483 9.142376 -0.000001 0.000002 -0.000000 5.673413 7.585035 36.844151 1.050493 3.824500 68.900230 0.499528 3.026041 62.196488 -0.000001 -0.000001 -0.000000 -77.804024 30.406428 42.620121 52.263255 -18.913074 -3.427063 29.746495 0.383943 0.774002 0.948731 -2.810508 -1.088848 0.000002 -0.000000 0.000000 -60.888534 0.499928 -38.144650 86.063963 21.405698 -0.057283 5.922003 -5.552375 10.187675 6.732277 3.858514 -0.194241 -0.000002 -0.000001 0.000002 
-5.681931 93.037392 5.285270 12.948231 -28.042658 13.611086 11.597800 -2.204098 -1.100792 7.248665 -4.573508 -2.200230 -4.619808 -4.023234 -3.094660 2.203998 15.586111 -4.223316 18.796349 17.018811 -2.676804 -0.000000 -0.000000 -0.000000 -5.321745 -5.308863 -10.287759 -41.694876 4.184728 -0.305739 1.925631 -57.122088 -4.337690 -1.368355 -5.850974 25.157812 -1.647691 -10.574729 -0.054258 0.134020 -0.197686 -4.602136 0.055726 -0.448193 -7.568222 -0.000003 0.000000 0.000002 11.835304 -20.539482 11.513370 -1.150160 11.255267 -8.400779 5.706539 8.483092 -0.820745 0.000000 -0.000000 0.000000 -8.538203 2.603342 -5.758830 -47.252478 -26.030865 -9.036831 -72.420223 47.319643 77.282648 -29.364766 12.540153 -13.171863 55.149550 18.649569 -29.698311 -0.442537 -14.180578 7.313155 21.666974 -29.244483 9.142377 -0.000002 0.000003 -0.000001 5.673415 7.585036 36.844151 1.050492 3.824499 68.900223 0.499531 3.026041 62.196488 -0.000000 -0.000001 -0.000000 -69.832086 31.143453 31.721109 37.160119 -24.841673 0.879677 33.098656 -1.794226 -7.372057 1.032364 -2.870830 -1.271413 0.000000 0.000000 -0.000000 -43.741033 -5.488616 -45.457177 70.056397 15.323273 6.312015 1.565189 -4.741384 16.787394 6.525838 2.908065 0.166375 0.000002 -0.000000 0.000000 
-5.547244 83.428818 6.823781 11.768002 -24.515731 10.495968 10.621912 -1.958266 -0.953552 5.314904 -3.996311 -1.832388 -6.549530 -3.534006 -2.615773 1.835156 13.789250 -2.620956 23.488855 15.596044 -1.144920 -0.000001 -0.000000 -0.000000 -5.558528 -6.730535 -11.964089 -42.676227 -0.228564 -5.497646 6.542858 -59.288419 -2.078193 3.290703 -5.700033 24.996899 -1.713717 -11.345855 -0.033376 0.134146 -0.197723 -4.602119 0.055730 -0.448191 -7.568226 -0.000002 -0.000000 -0.000001 10.702098 -22.280617 11.101509 -1.150199 11.255290 -8.400843 5.706540 8.483092 -0.820746 0.000000 0.000001 -0.000002 -8.179378 2.547245 -3.728643 -52.517140 -28.567720 -7.020784 -66.301350 53.626919 73.911260 -28.332733 3.464558 -6.554289 55.149550 18.649565 -29.698308 -0.442533 -14.180576 7.313155 21.666979 -29.244483 9.142375 0.000000 -0.000000 -0.000000 5.673413 7.585030 36.844147 1.050501 3.824504 68.900223 0.499532 3.026039 62.196495 -0.000000 -0.000003 -0.000000 -60.197941 30.379674 22.405551 25.505479 -31.533969 5.221690 32.767341 -4.417989 -16.027633 0.455859 -2.386309 0.676717 -0.000001 -0.000002 0.000000 -28.957147 -13.123147 -45.358586 54.320928 7.572410 6.128942 -0.805958 -1.781935 25.063360 -6.586796 2.217488 3.838245 -0.000000 -0.000000 -0.000000 
-5.397182 73.377541 6.943171 12.539952 -20.732373 8.599111 10.415530 -1.847448 -1.073862 4.914935 -3.713265 -1.647008 -6.948098 -3.300798 -2.374364 0.035378 12.283606 -2.143777 23.319603 12.760732 0.983504 -0.000005 0.000000 -0.000000 -5.721475 -8.961214 -12.754040 -42.848126 -2.910094 -12.040479 9.635443 -58.695647 0.915169 7.914829 -7.310093 24.895201 -1.756163 -11.842836 -0.020339 0.134156 -0.197722 -4.602115 0.055724 -0.448193 -7.568222 0.000000 0.000002 0.000000 9.956825 -23.398690 10.813413 -1.150196 11.255310 -8.400837 5.706537 8.483092 -0.820740 0.000000 -0.000001 0.000002 -7.662629 3.187488 -2.997758 -61.161387 -43.239254 -3.656983 -65.425631 61.416125 76.629415 -22.752019 -1.354239 3.496805 55.149546 18.649565 -29.698308 -0.442537 -14.180574 7.313154 21.666982 -29.244483 9.142379 0.000001 -0.000000 -0.000000 5.673413 7.585038 36.844144 1.050498 3.824502 68.900230 0.499526 3.026043 62.196481 -0.000000 0.000001 0.000001 -65.535938 26.621878 22.375165 40.470066 -30.519546 7.322901 9.175386 -3.139919 -8.855435 -2.583008 -3.519067 1.769674 0.000000 -0.000001 0.000000 -22.526401 -21.781786 -42.542540 51.601161 0.069746 3.093606 -22.018554 -0.223536 33.443707 -15.356695 0.674902 -0.195285 0.000000 -0.000001 -0.000000 
-4.721096 64.048843 6.062250 17.216872 -17.163593 10.120803 10.887922 -1.445068 -1.413917 5.768664 -3.400796 -1.834190 -6.094831 -3.025733 -2.472272 -3.502839 11.647842 -3.208825 16.480090 8.212006 1.801952 0.000000 -0.000000 0.000000 -5.725346 -11.610330 -12.601011 -41.252345 -5.315004 -18.299492 10.381275 -54.769019 3.105177 9.377662 -10.666671 24.393805 -1.771667 -12.024521 -0.015711 0.134035 -0.197699 -4.602137 0.055729 -0.448191 -7.568223 -0.000001 0.000001 -0.000000 9.681304 -23.806520 10.703512 -1.150229 11.255318 -8.400820 5.706536 8.483092 -0.820741 0.000001 -0.000001 -0.000001 -7.256281 4.639024 -3.124261 -72.883760 -62.922305 -8.812021 -61.214997 64.799138 77.393167 -17.233833 4.203904 14.676767 55.149546 18.649569 -29.698311 -0.442532 -14.180574 7.313151 21.666979 -29.244483 9.142380 -0.000002 0.000000 0.000000 5.673416 7.585036 36.844147 1.050497 3.824501 68.900230 0.499528 3.026043 62.196488 0.000001 0.000001 0.000000 -85.128391 18.639706 24.972005 60.616945 -27.950539 4.446462 4.817889 -2.392265 -4.211089 -0.645918 -4.707988 -0.956219 -0.000000 0.000002 -0.000000 -27.296315 -25.557426 -45.700642 60.904674 -1.160099 1.956178 -46.165518 -4.245491 37.615310 0.099884 1.863000 -1.108714 0.000000 -0.000003 0.000000 
-3.851923 57.801270 5.074013 21.785466 -16.902452 14.485764 11.916054 -0.854310 -2.122295 7.616466 -2.746850 -2.477054 -4.247926 -2.397972 -2.922945 -8.101479 11.910752 -4.725184 3.565476 3.231049 0.247091 -0.000000 0.000000 0.000000 -5.575506 -13.899055 -12.008069 -37.966675 -8.014625 -22.188020 10.278957 -50.082905 4.245752 7.538641 -14.701379 23.114847 -1.803478 -12.396574 -0.006315 0.133946 -0.197689 -4.602133 0.055729 -0.448192 -7.568225 -0.000001 -0.000001 -0.000001 9.111617 -24.640032 10.470693 -1.150248 11.255299 -8.400860 5.706534 8.483089 -0.820743 -0.000001 0.000001 -0.000001 -6.506104 7.010042 -5.061007 -59.130683 -73.782401 9.773087 -36.230032 62.825801 54.624738 -14.104885 18.444559 18.415539 55.149550 18.649567 -29.698311 -0.442531 -14.180576 7.313158 21.666981 -29.244483 9.142378 0.000001 0.000000 0.000000 5.673416 7.585036 36.844147 1.050495 3.824504 68.900230 0.499526 3.026045 62.196488 0.000003 0.000000 -0.000001 -97.558618 16.006501 26.677179 69.950672 -26.927616 1.905486 3.672760 -1.201183 -2.643837 -0.446512 -4.635866 -0.784996 -0.000000 0.000001 0.000000 -39.223785 -20.697365 -50.605708 76.090903 9.227148 -4.752270 -56.765911 -13.093338 30.535266 1.099180 2.930104 1.263062 -0.000000 0.000002 0.000000 
-2.715754 54.812263 4.100965 26.137247 -17.163401 19.058150 13.099867 -0.618218 -2.812392 9.717271 -2.683637 -2.895243 -2.160646 -2.440374 -3.261668 -12.642076 12.578031 -5.164280 -11.262481 0.610317 -2.775880 -0.000001 -0.000000 -0.000000 -5.403487 -15.437068 -11.592120 -34.105911 -9.947222 -23.094318 10.890584 -50.225379 5.450499 5.274122 -18.093706 21.529019 -1.848559 -12.923884 0.006691 0.133800 -0.197642 -4.602113 0.055730 -0.448192 -7.568223 -0.000000 -0.000005 -0.000003 8.291062 -25.817738 10.122168 -1.150262 11.255310 -8.400831 5.706536 8.483092 -0.820743 0.000000 0.000002 0.000000 -6.235731 9.428393 -5.777073 -32.440253 -61.733032 42.923733 -14.363739 47.307499 28.666277 -10.376923 38.399283 12.091434 55.149546 18.649567 -29.698308 -0.442529 -14.180574 7.313154 21.666981 -29.244483 9.142376 0.000000 0.000000 -0.000000 5.673414 7.585038 36.844147 1.050493 3.824506 68.900230 0.499527 3.026041 62.196488 0.000002 -0.000000 -0.000001 -105.065508 17.131849 28.155706 72.309901 -26.090947 0.746725 5.097357 -0.802689 -1.803028 -0.187832 -4.576498 -0.958110 -0.000000 -0.000001 0.000000 -46.715458 -12.774940 -54.113584 84.261913 12.082600 -5.993395 -59.556121 -15.316163 29.451987 0.528294 2.969987 1.471329 0.000000 0.000002 -0.000000 
-1.319607 52.940308 2.977575 28.762193 -17.442239 22.008331 14.455112 -0.329038 -3.266529 12.155567 -2.437131 -2.691995 0.261583 -2.448304 -2.949465 -15.927513 13.080522 -4.335557 -22.007546 1.817899 -5.231322 -0.000000 -0.000000 -0.000000 -5.311961 -16.416351 -11.653004 -30.537151 -9.926993 -22.009603 10.714583 -51.103755 5.659199 4.655109 -20.096978 20.664003 -1.866871 -13.137973 0.011904 0.133655 -0.197628 -4.602164 0.055730 -0.448192 -7.568224 0.000002 0.000001 0.000001 7.953184 -26.294632 9.974271 -1.150216 11.255326 -8.400819 5.706539 8.483090 -0.820745 -0.000000 0.000000 -0.000000 -6.344105 11.615220 -5.650044 -36.602202 -44.287363 48.773500 -12.252747 26.521780 13.064980 -2.741051 53.624464 3.555972 55.149550 18.649567 -29.698311 -0.442530 -14.180579 7.313158 21.666981 -29.244483 9.142376 -0.000000 0.000000 -0.000000 5.673411 7.585036 36.844147 1.050493 3.824506 68.900223 0.499530 3.026040 62.196495 -0.000001 0.000000 -0.000001 -110.315881 18.378094 29.252583 73.430599 -25.231760 0.448665 6.539403 -0.678476 -1.046043 0.005087 -4.637237 -1.390762 0.000000 -0.000003 0.000000 -50.997003 -5.621027 -56.139329 89.227815 12.653730 -5.745127 -59.580382 -15.900247 30.375695 0.528381 2.970048 1.471317 0.000000 -0.000002 -0.000000 
